<svg id="Layer_1" height="512" viewBox="0 0 512 512" width="512" xmlns="http://www.w3.org/2000/svg" data-name="Layer 1"><path d="m170.94 292.57a475.687 475.687 0 0 1 -59.83-12.53c-43.37-12.37-70.11-29.33-70.11-48.03 0-19.7 29.683-37.461 77.213-49.977.415-2.359.879-4.7 1.407-7.013-65.51 12.32-108.62 33.25-108.62 56.99 0 18.7 26.74 35.66 70.11 48.03a475.687 475.687 0 0 0 59.83 12.53 746.32 746.32 0 0 0 77.7 7.23h.01l29.506-.024a745.789 745.789 0 0 1 -77.216-7.206z" fill="#d4e1f4"/><g fill="#0635c9"><path d="m368.415 298.928 111.969 130.047a14.2 14.2 0 0 0 23.475-15.6l-64.567-129.609c40.252-12.337 67.708-29.635 67.708-51.756 0-14.1-11.184-26.966-33.241-38.24-19.506-9.97-47.538-18.542-81.067-24.791l-2.2 11.8c63.487 11.828 104.508 31.939 104.508 51.231 0 13.468-20.231 27.736-55.506 39.148-36.032 11.657-85.241 19.525-139.193 22.307l.752-4.937a6 6 0 0 0 -1.81-5.262 62.97 62.97 0 0 0 -86.486 0 6 6 0 0 0 -1.816 5.225l.725 4.972c-53.9-2.782-103.068-10.639-139.091-22.283-50.16-16.213-55.575-32.793-55.575-39.17 0-19.282 40.989-39.386 104.426-51.218l-2.2-11.8c-33.506 6.249-61.518 14.821-81.008 24.788-22.042 11.274-33.218 24.136-33.218 38.23 0 22.126 27.451 39.424 67.7 51.76l-64.559 129.605a14.2 14.2 0 0 0 23.475 15.6l111.969-130.045c22.66 3.267 46.4 5.487 69.845 6.639l24.67 169.274a17.576 17.576 0 0 0 17.3 14.961 17.382 17.382 0 0 0 17.282-14.851l25.783-169.378c23.467-1.15 47.252-3.375 69.95-6.647zm124.7 119.8a2.2 2.2 0 0 1 -3.64 2.42l-107.1-124.39c15.947-2.668 31.182-5.877 45.181-9.628zm-470.6 2.42a2.2 2.2 0 0 1 -3.641-2.419l65.554-131.6c14 3.75 29.235 6.96 45.185 9.627zm238.29 52a5.45 5.45 0 0 1 -5.419 4.657 5.509 5.509 0 0 1 -5.423-4.691l-26.682-183.16a50.972 50.972 0 0 1 65.419-.016z"/><path d="m70.333 242.556a6 6 0 0 0 12 0 4.209 4.209 0 0 1 8.417 0 6 6 0 1 0 12 0 16.209 16.209 0 0 0 -32.417 0z"/><path d="m109.125 242.556a6 6 0 1 0 12 0 4.209 4.209 0 0 1 8.417 0 6 6 0 0 0 12 0 16.209 16.209 0 0 0 -32.417 0z"/><path d="m354.314 71.522a26.318 26.318 0 0 1 16.16 17 6 6 0 0 0 5.576 4.252q.083 0 .165 0a6 6 0 0 0 5.636-3.943 26.434 26.434 0 0 1 17.082-16.144 6 6 0 0 0 .3-11.383 26.32 26.32 0 0 1 -16.16-17 6 6 0 0 0 -11.379-.304 26.433 26.433 0 0 1 -17.08 16.142 6 6 0 0 0 -.3 11.383zm22.673-12.765a38.622 38.622 0 0 0 7.456 7.854 38.67 38.67 0 0 0 -7.884 7.461 38.654 38.654 0 0 0 -7.457-7.854 38.7 38.7 0 0 0 7.885-7.461z"/><path d="m358.831 415.144a6 6 0 0 0 -11.267 1.615 26.429 26.429 0 0 1 -14.109 18.8 6 6 0 0 0 1.628 11.27 26.316 26.316 0 0 1 18.8 14.027 6 6 0 0 0 11.266-1.616 26.43 26.43 0 0 1 14.11-18.8 6 6 0 0 0 -1.628-11.271 26.315 26.315 0 0 1 -18.8-14.025zm-1.393 30.438a38.566 38.566 0 0 0 -8.676-6.482 38.72 38.72 0 0 0 6.512-8.686 38.626 38.626 0 0 0 8.676 6.482 38.7 38.7 0 0 0 -6.512 8.686z"/><path d="m46.321 95.869a6 6 0 0 0 -.3 11.383 26.319 26.319 0 0 1 16.161 17 6 6 0 0 0 5.578 4.248h.164a6 6 0 0 0 5.636-3.943 26.427 26.427 0 0 1 17.08-16.143 6 6 0 0 0 .3-11.383 26.326 26.326 0 0 1 -16.16-17 6 6 0 0 0 -11.377-.31 26.429 26.429 0 0 1 -17.082 16.148zm22.374-1.383a38.652 38.652 0 0 0 7.457 7.854 38.675 38.675 0 0 0 -7.885 7.461 38.621 38.621 0 0 0 -7.457-7.853 38.707 38.707 0 0 0 7.885-7.462z"/><path d="m45.708 49.494a11.1 11.1 0 1 0 -11.1-11.1 11.117 11.117 0 0 0 11.1 11.1zm0-12a.9.9 0 1 1 -.9.9.9.9 0 0 1 .9-.9z"/><path d="m36.521 72.973a7.021 7.021 0 1 0 -7.021-7.021 7.028 7.028 0 0 0 7.021 7.021z"/><path d="m134.506 402.915a11.246 11.246 0 0 0 -15.468 3.274 11.106 11.106 0 0 0 3.222 15.358 11.667 11.667 0 0 0 6.215 1.785c3.64 0 6.525-1.785 9.525-5.059a11.481 11.481 0 0 0 -3.494-15.358zm-5.508 9.8a.9.9 0 0 1 -1.5-.975l1.5.974z"/><path d="m150.6 373.46a7.019 7.019 0 1 0 2.062 9.714 7.02 7.02 0 0 0 -2.065-9.709z"/><path d="m375.766 391.973a9.065 9.065 0 0 0 1.872 17.929 9.17 9.17 0 0 0 1.907-.2 9.063 9.063 0 1 0 -3.779-17.727z"/><path d="m383.871 386.262a7.021 7.021 0 1 0 -2.075-9.712 6.98 6.98 0 0 0 2.075 9.712z"/><path d="m481.5 43.4a11.1 11.1 0 1 0 9.248-20.191 11.1 11.1 0 0 0 -9.248 20.191zm5-10.91a.9.9 0 1 1 -.746 1.629z"/><path d="m472.556 84.585a7.019 7.019 0 1 0 -3.657-3.933 7 7 0 0 0 3.657 3.933z"/><path d="m442.3 167.321c5.819 1.525 11.42 3.145 16.647 4.816 6.8 2.175 13.148 4.487 18.856 6.873a6 6 0 0 0 4.629-11.072c-6.028-2.519-12.7-4.952-19.831-7.231-5.429-1.735-11.235-3.415-17.258-5a6 6 0 0 0 -3.043 11.609z"/><path d="m416.9 161.512q2.3.458 4.566.93a6 6 0 0 0 2.453-11.746q-2.317-.484-4.677-.953a6 6 0 0 0 -2.342 11.769z"/></g><path d="m256 61.2c-39.158 0-75.81 14.969-103.2 42.15-27.582 27.368-42.772 64.24-42.772 103.823a6 6 0 0 0 4.138 5.7 456.072 456.072 0 0 0 141.834 22.584 456.074 456.074 0 0 0 141.837-22.579 6 6 0 0 0 4.137-5.7c0-39.583-15.19-76.455-42.772-103.823-27.392-27.185-64.044-42.155-103.202-42.155zm-10 162.138v-9.73l.087.006a13.955 13.955 0 0 0 9.872 4.393c3.695 0 7.3-2.007 9.852-4.007h.091l.1-.393v9.731c-3 .072-6.718.119-10 .119s-7.002-.047-10.002-.119zm11.159-18.019a1.6 1.6 0 0 1 -2.318 0l-31.6-33.045a45.029 45.029 0 0 1 -11.094-41.394c3.324-14.459 12.831-25.575 26.084-30.5a51.125 51.125 0 0 1 35.542 0c13.253 4.924 22.76 16.04 26.084 30.5a45.029 45.029 0 0 1 -11.094 41.394zm20.841 17.581v-21.841l19.514-20.491a56.972 56.972 0 0 0 14.077-52.376c-4.183-18.2-16.764-32.8-33.619-39.06a63.178 63.178 0 0 0 -43.918 0c-16.854 6.268-29.419 20.868-33.601 39.06a56.951 56.951 0 0 0 14.034 52.376l19.513 20.491v21.841a443.736 443.736 0 0 1 -111.989-20.082 132.921 132.921 0 0 1 39.2-90.952c25.13-24.935 58.8-38.668 94.771-38.668a133.085 133.085 0 0 1 134 129.621 443.725 443.725 0 0 1 -111.982 20.081z" fill="#1ae5be"/><path d="m176.377 128.32a6 6 0 0 0 -8.47.508 115.41 115.41 0 0 0 -18.418 28.172 6 6 0 1 0 10.893 5.034 103.438 103.438 0 0 1 16.5-25.245 6 6 0 0 0 -.505-8.469z" fill="#1ae5be"/><path d="m185.3 112.869c-1.485 1.105-2.961 2.26-4.386 3.432a6 6 0 1 0 7.623 9.267c1.276-1.049 2.6-2.083 3.927-3.073a6 6 0 1 0 -7.164-9.626z" fill="#1ae5be"/><path d="m296.46 133.91a6 6 0 0 0 -5.048-5.2c-.666-.1-16.36-2.373-25.39 7.734-8.53 9.549-6.879 25.35-6.664 27.121a6 6 0 0 0 5.048 5.2 32.434 32.434 0 0 0 4.545.287c5.484 0 14.7-1.15 20.845-8.022 8.53-9.549 6.88-25.35 6.664-27.12zm-15.613 19.125c-2.4 2.684-6.376 3.678-9.711 3.953.182-4.159 1.078-9.465 3.836-12.552 2.4-2.683 6.372-3.677 9.711-3.951-.183 4.159-1.083 9.463-3.836 12.55z" fill="#1ae5be"/><path d="m251.62 163.562c.216-1.771 1.866-17.572-6.664-27.121-9.027-10.107-24.723-7.836-25.389-7.734a6 6 0 0 0 -5.047 5.2c-.216 1.77-1.867 17.571 6.663 27.12 6.139 6.873 15.362 8.022 20.844 8.022a32.45 32.45 0 0 0 4.545-.287 6 6 0 0 0 5.048-5.2zm-21.488-10.526c-2.762-3.092-3.658-8.357-3.838-12.534 3.2.249 7.235 1.16 9.713 3.934 2.762 3.091 3.659 8.356 3.839 12.532-3.204-.248-7.237-1.159-9.714-3.932z" fill="#1ae5be"/><path d="m259.007 183h-6.014a6 6 0 0 0 0 12h6.014a6 6 0 0 0 0-12z" fill="#1ae5be"/></svg>