<?xml version="1.0"?>
<svg xmlns="http://www.w3.org/2000/svg" xmlns:xlink="http://www.w3.org/1999/xlink" xmlns:svgjs="http://svgjs.com/svgjs" version="1.1" width="512" height="512" x="0" y="0" viewBox="0 0 511.999 511.999" style="enable-background:new 0 0 512 512" xml:space="preserve" class=""><g transform="matrix(1,0,0,1,0,0)"><g xmlns="http://www.w3.org/2000/svg"><g><path d="m396.837 349.665h-26.842v-30h26.842c30.601 0 55.496-24.895 55.496-55.496s-24.896-55.496-55.496-55.496h-26.842v-30h26.842c47.143 0 85.496 38.354 85.496 85.496s-38.354 85.496-85.496 85.496z" fill="#b51a21" data-original="#bfebff" style="" class=""/></g><g><path d="m396.837 349.665h-26.842v-30h26.842c30.601 0 55.496-24.895 55.496-55.496s-24.896-55.496-55.496-55.496h-26.842v-30h26.842c47.143 0 85.496 38.354 85.496 85.496s-38.354 85.496-85.496 85.496z" fill="#802e2e" data-original="#7ed7ff" style="" class=""/></g><path d="m29.666 148.671v220.663c0 78.666 63.999 142.666 142.665 142.666h69.998c78.666 0 142.666-64 142.666-142.666v-220.663z" fill="#8b3131" data-original="#dff5ff" style="" class=""/><path d="m207.329 148.671v363.328h35c78.666 0 142.666-64 142.666-142.666v-220.662z" fill="#b51a21" data-original="#bfebff" style="" class=""/><g><path d="m137 148.671h30v98.335h-30z" fill="#addefb" data-original="#fef8c9" style="" class=""/></g><path d="m184.331 232.006h-64.662l-22.998 34.498v85.766h110.658v-85.766z" fill="#f18526" data-original="#badb47" style="" class=""/><g><path d="m144.665 114h-30v-28c0-31.981 26.019-58 58-58h74.33c15.439 0 28-12.561 28-28h30c0 31.981-26.019 58-58 58h-74.33c-15.439 0-28 12.561-28 28z" fill="#addefb" data-original="#fef8c9" style="" class=""/></g><g><path d="m286.03 114h-78.7v-30h78.699c15.22 0 27.603-12.383 27.603-27.603h30c.001 31.762-25.84 57.603-57.602 57.603z" fill="#addefb" data-original="#fef8c9" style="" class=""/></g><g><path d="m286.03 114h-78.7v-30h78.699c15.22 0 27.603-12.383 27.603-27.603h30c.001 31.762-25.84 57.603-57.602 57.603z" fill="#4ad4db" data-original="#fff0bc" style="" class=""/></g><path d="m304.996 0h-30c0 15.439-12.561 28-28 28h-39.666v30h39.666c31.981 0 58-26.019 58-58z" fill="#4ad4db" data-original="#fff0bc" style="" class=""/></g></g></svg>
