<?xml version="1.0"?>
<svg xmlns="http://www.w3.org/2000/svg" xmlns:xlink="http://www.w3.org/1999/xlink" xmlns:svgjs="http://svgjs.com/svgjs" version="1.1" width="512" height="512" x="0" y="0" viewBox="0 -31 512 512" style="enable-background:new 0 0 512 512" xml:space="preserve" class=""><g><path xmlns="http://www.w3.org/2000/svg" d="m482 137.101562c0 101.097657-105.398438 170.097657-231.097656 279.296876l-9.902344 8.402343-9.902344-8.402343c-129.597656-112.5-231.097656-178.199219-231.097656-279.296876 0-78.300781 55.902344-137.101562 128.5-137.101562 56.398438 0 93 38.398438 112.5 73.800781 19.5-35.402343 57.101562-73.800781 113.5-73.800781 72.597656 0 127.5 58.800781 127.5 137.101562zm0 0" fill="#2fadc1" data-original="#f27281" style="" class=""/><path xmlns="http://www.w3.org/2000/svg" d="m482 137.101562c0 101.097657-105.398438 170.097657-231.097656 279.296876l-9.902344 8.402343v-351c19.5-35.402343 57.101562-73.800781 113.5-73.800781 72.597656 0 127.5 58.800781 127.5 137.101562zm0 0" fill="#2bc1b3" data-original="#e63950" style="" class=""/><path xmlns="http://www.w3.org/2000/svg" d="m407 240c-57.898438 0-105 47.101562-105 105s47.101562 105 105 105 105-47.101562 105-105-47.101562-105-105-105zm0 0" fill="#c90606" data-original="#61d7a8" style="" class=""/><path xmlns="http://www.w3.org/2000/svg" d="m512 345c0 57.898438-47.101562 105-105 105v-210c57.898438 0 105 47.101562 105 105zm0 0" fill="#ab0000" data-original="#00ab94" style="" class=""/><path xmlns="http://www.w3.org/2000/svg" d="m462.5 325.5-55.5 55.800781-15 15-40.5-40.800781 21-21 19.5 19.199219 15-15 34.5-34.199219zm0 0" fill="#fff5f5" data-original="#fff5f5" style=""/><path xmlns="http://www.w3.org/2000/svg" d="m462.5 325.5-55.5 55.800781v-42.601562l34.5-34.199219zm0 0" fill="#efe2dd" data-original="#efe2dd" style="" class=""/></g></svg>
