<?xml version="1.0"?>
<svg xmlns="http://www.w3.org/2000/svg" xmlns:xlink="http://www.w3.org/1999/xlink" xmlns:svgjs="http://svgjs.com/svgjs" version="1.1" width="512" height="512" x="0" y="0" viewBox="0 0 512.001 512.001" style="enable-background:new 0 0 512 512" xml:space="preserve" class=""><g>
<path xmlns="http://www.w3.org/2000/svg" style="" d="M509.429,458.123L325.417,290.112c-3.158-2.883-8.027-2.773-11.052,0.251l-24.002,24.002  c-3.024,3.024-3.135,7.894-0.251,11.052l168.012,184.013c3.031,3.321,8.386,3.443,11.565,0.263l40.003-40.003  C512.871,466.51,512.75,461.155,509.429,458.123z" fill="#938859" data-original="#938859" class=""/>
<path xmlns="http://www.w3.org/2000/svg" style="" d="M290.364,314.365c-3.024,3.024-3.135,7.894-0.251,11.052l168.012,184.013  c3.031,3.321,8.386,3.443,11.565,0.263l11.681-11.681L296.254,308.474L290.364,314.365z" fill="#877b46" data-original="#877b46"/>
<g xmlns="http://www.w3.org/2000/svg">
	<path style="" d="M312.022,360.025c-2.047,0-4.095-0.781-5.657-2.343c-3.125-3.124-3.125-8.19,0-11.314l40.003-40.003   c3.124-3.124,8.19-3.124,11.314,0c3.125,3.124,3.125,8.19,0,11.314l-40.003,40.003C316.117,359.244,314.07,360.025,312.022,360.025   z" fill="#aba37e" data-original="#aba37e" class=""/>
	<path style="" d="M328.023,384.026c-6.995,0-10.583-8.733-5.657-13.658l48.003-48.003   c3.124-3.124,8.19-3.124,11.314,0c3.125,3.124,3.125,8.19,0,11.314l-48.003,48.003   C332.118,383.245,330.071,384.026,328.023,384.026z" fill="#aba37e" data-original="#aba37e" class=""/>
</g>
<path xmlns="http://www.w3.org/2000/svg" style="" d="M184.013,0C82.548,0,0,82.548,0,184.013s82.548,184.013,184.013,184.013  s184.013-82.548,184.013-184.013S285.478,0,184.013,0z" fill="#df9f08" data-original="#ffe340" class=""/>
<path xmlns="http://www.w3.org/2000/svg" style="" d="M184.013,40.003c-79.407,0-144.01,64.602-144.01,144.01s64.602,144.01,144.01,144.01  s144.01-64.602,144.01-144.01S263.42,40.003,184.013,40.003z" fill="#f3f2ed" data-original="#f3f2ed" class=""/>
<path xmlns="http://www.w3.org/2000/svg" style="" d="M216.015,320.022c-79.407,0-144.01-64.602-144.01-144.01c0-61.586,38.865-114.259,93.351-134.802  C94.731,50.385,40.003,110.927,40.003,184.013c0,79.407,64.602,144.01,144.01,144.01c17.821,0,34.891-3.263,50.658-9.208  C228.563,319.609,222.336,320.022,216.015,320.022z" fill="#e7e5da" data-original="#e7e5da" class=""/>
<path xmlns="http://www.w3.org/2000/svg" style="" d="M258.498,152.756c-5.679-13.062-18.234-21.554-32.767-22.164  c-15.613-0.671-30.335,7.441-41.718,22.561c-11.383-15.119-26.123-23.231-41.718-22.561c-14.532,0.609-27.088,9.102-32.767,22.164  c-6.964,16.018-2.442,35.14,12.406,52.465c28.448,33.189,57.014,49.139,58.215,49.802c2.382,1.313,5.343,1.313,7.727,0  c1.202-0.663,29.768-16.614,58.215-49.802C260.94,187.897,265.462,168.775,258.498,152.756z" fill="#d50610" data-original="#ff66b2" class=""/>
<path xmlns="http://www.w3.org/2000/svg" style="" d="M140.257,205.221c-14.849-17.324-19.37-36.446-12.406-52.465c4.7-10.81,14.115-18.474,25.457-21.146  c-3.599-0.821-7.281-1.177-11.012-1.017c-14.532,0.609-27.088,9.102-32.767,22.164c-6.964,16.018-2.442,35.14,12.406,52.465  c28.448,33.189,57.014,49.139,58.215,49.802c2.382,1.313,5.343,1.313,7.727,0c0.291-0.16,2.194-1.224,5.298-3.201  C183.446,245.626,161.823,230.382,140.257,205.221z" fill="#bb070f" data-original="#ff3399" class=""/>
<g xmlns="http://www.w3.org/2000/svg">
	<path style="" d="M442.541,282.529c-6.995,0-10.583-8.733-5.657-13.658c22.667-22.667,35.149-52.804,35.149-84.859   s-12.483-62.192-35.149-84.859c-3.125-3.124-3.125-8.19,0-11.314s8.191-3.124,11.314,0c25.69,25.689,39.837,59.843,39.837,96.173   s-14.147,70.484-39.836,96.174C446.636,281.748,444.588,282.529,442.541,282.529z" fill="#2bc1b3" data-original="#bfdc4f" class=""/>
	<path style="" d="M385.968,225.956c-6.996,0-10.583-8.733-5.657-13.658c7.557-7.556,11.717-17.6,11.717-28.286   s-4.161-20.73-11.717-28.286c-3.124-3.125-3.125-8.19,0-11.315c3.125-3.124,8.191-3.125,11.315,0   c10.578,10.578,16.403,24.642,16.403,39.601s-5.825,29.023-16.403,39.601C390.063,225.175,388.016,225.956,385.968,225.956z" fill="#2bc1b3" data-original="#bfdc4f" class=""/>
	<path style="" d="M414.255,254.243c-6.995,0-10.583-8.733-5.657-13.658c15.111-15.111,23.433-35.202,23.433-56.573   s-8.322-41.462-23.433-56.573c-3.125-3.124-3.125-8.19,0-11.314c3.124-3.124,8.19-3.124,11.314,0   c18.133,18.133,28.12,42.242,28.12,67.887s-9.987,49.753-28.12,67.887C418.35,253.461,416.302,254.243,414.255,254.243z" fill="#2bc1b3" data-original="#bfdc4f" class=""/>
	<path style="" d="M192.013,496.034c-36.329,0-70.484-14.147-96.174-39.836c-3.125-3.124-3.125-8.19,0-11.314   c3.124-3.124,8.19-3.124,11.314,0c22.668,22.666,52.805,35.148,84.86,35.148s62.192-12.483,84.859-35.149   c3.124-3.124,8.19-3.124,11.314,0c3.125,3.124,3.125,8.19,0,11.314C262.498,481.887,228.343,496.034,192.013,496.034z" fill="#2bc1b3" data-original="#bfdc4f" class=""/>
	<path style="" d="M192.013,416.028c-14.959,0-29.023-5.825-39.601-16.403c-3.124-3.125-3.124-8.19,0-11.315   c3.125-3.123,8.191-3.124,11.315,0c7.556,7.556,17.601,11.717,28.286,11.717s20.73-4.161,28.286-11.717   c3.125-3.124,8.191-3.125,11.315,0s3.125,8.19,0,11.315C221.037,410.203,206.973,416.028,192.013,416.028z" fill="#2bc1b3" data-original="#bfdc4f" class=""/>
	<path style="" d="M192.013,456.031c-25.645,0-49.753-9.987-67.887-28.12c-3.125-3.124-3.125-8.19,0-11.314   c3.124-3.124,8.19-3.124,11.314,0c15.111,15.111,35.202,23.433,56.573,23.433s41.462-8.322,56.573-23.433   c3.124-3.124,8.19-3.124,11.314,0c3.125,3.124,3.125,8.19,0,11.314C241.768,446.045,217.658,456.031,192.013,456.031z" fill="#2bc1b3" data-original="#bfdc4f" class=""/>
</g>
<g xmlns="http://www.w3.org/2000/svg">
</g>
<g xmlns="http://www.w3.org/2000/svg">
</g>
<g xmlns="http://www.w3.org/2000/svg">
</g>
<g xmlns="http://www.w3.org/2000/svg">
</g>
<g xmlns="http://www.w3.org/2000/svg">
</g>
<g xmlns="http://www.w3.org/2000/svg">
</g>
<g xmlns="http://www.w3.org/2000/svg">
</g>
<g xmlns="http://www.w3.org/2000/svg">
</g>
<g xmlns="http://www.w3.org/2000/svg">
</g>
<g xmlns="http://www.w3.org/2000/svg">
</g>
<g xmlns="http://www.w3.org/2000/svg">
</g>
<g xmlns="http://www.w3.org/2000/svg">
</g>
<g xmlns="http://www.w3.org/2000/svg">
</g>
<g xmlns="http://www.w3.org/2000/svg">
</g>
<g xmlns="http://www.w3.org/2000/svg">
</g>
</g></svg>
